<?xml version="1.0" standalone="no"?>
<!DOCTYPE svg PUBLIC "-//W3C//DTD SVG 20010904//EN"
 "http://www.w3.org/TR/2001/REC-SVG-20010904/DTD/svg10.dtd">
<svg version="1.0" xmlns="http://www.w3.org/2000/svg"
 width="1280.000000pt" height="720.000000pt" viewBox="0 0 1280.000000 720.000000"
 preserveAspectRatio="xMidYMid meet">
<metadata>
Created by potrace 1.15, written by Peter Selinger 2001-2017
</metadata>
<g transform="translate(0.000000,720.000000) scale(0.100000,-0.100000)"
fill="#000000" stroke="none">
<path d="M3210 5684 c0 -6 22 -53 48 -105 69 -134 92 -244 91 -424 0 -77 -5
-165 -10 -195 -5 -30 -12 -71 -16 -90 -3 -19 -12 -44 -19 -55 -8 -11 -14 -33
-14 -50 0 -17 -14 -50 -30 -74 -33 -49 -53 -110 -44 -134 9 -25 65 -53 120
-62 63 -9 201 -82 268 -141 98 -87 215 -226 221 -264 3 -19 12 -48 20 -63 8
-16 15 -41 15 -55 1 -15 7 -38 15 -52 28 -49 19 -144 -27 -275 -6 -16 -13 -46
-15 -66 -4 -30 0 -40 21 -56 22 -17 45 -21 168 -25 112 -4 158 -10 213 -28
102 -33 194 -77 240 -114 22 -18 54 -40 70 -48 33 -18 145 -131 145 -147 0
-25 71 -121 90 -121 10 0 42 22 72 48 66 60 157 122 180 122 9 0 20 5 23 10 3
6 16 10 28 10 12 0 54 11 92 25 59 21 88 25 188 25 87 0 126 -4 148 -15 16 -9
33 -13 38 -11 5 3 19 -3 32 -13 13 -10 44 -27 69 -38 25 -11 59 -37 75 -57 62
-77 95 -106 123 -107 93 -3 137 -8 222 -28 52 -13 127 -38 165 -57 78 -38 100
-41 109 -19 8 23 -41 49 -184 95 -112 37 -250 108 -250 129 0 10 -55 28 -128
42 -34 6 -61 14 -58 16 9 9 208 -17 288 -38 44 -11 106 -22 137 -23 31 -2 58
-5 61 -6 3 -1 8 -2 13 -1 4 1 25 -3 47 -8 27 -6 40 -5 43 3 3 8 7 8 18 0 15
-13 84 -27 139 -29 19 -1 43 -5 53 -9 20 -9 47 9 47 31 0 8 -16 30 -37 49 -20
19 -34 37 -31 40 5 5 41 1 199 -23 29 -4 41 -1 58 16 42 42 29 57 -56 70 -51
8 -87 19 -107 35 -33 24 -116 50 -116 35 0 -5 15 -16 33 -26 l32 -18 -74 -3
c-78 -3 -78 -3 -205 68 -60 34 -63 51 -5 31 27 -9 30 -8 25 5 -4 10 -1 14 6
11 7 -2 12 -10 11 -16 -2 -6 1 -11 6 -11 5 0 18 -3 28 -7 16 -6 16 -5 5 10
-13 15 -9 16 34 10 26 -3 85 -13 131 -23 58 -12 84 -14 87 -6 3 7 8 6 14 -3 6
-7 34 -16 63 -19 54 -5 99 -25 81 -36 -5 -3 -42 1 -82 10 -116 24 -92 9 35
-22 106 -26 119 -27 143 -14 46 26 52 122 6 106 -7 -3 -27 11 -45 31 -19 19
-54 49 -79 66 -25 17 -51 37 -58 44 -7 7 -22 13 -32 13 -13 0 -17 5 -13 19 4
15 12 18 51 14 26 -3 61 -9 77 -14 17 -4 68 -11 115 -15 47 -3 90 -10 95 -16
7 -7 2 -9 -15 -5 -50 12 -266 18 -250 7 8 -5 26 -10 40 -10 30 0 158 -32 219
-54 31 -11 60 -14 100 -10 65 8 81 17 81 49 0 17 -10 27 -40 39 -22 9 -49 16
-59 16 -10 0 -65 23 -122 50 -57 28 -95 43 -84 34 11 -9 43 -27 70 -40 l50
-25 -50 7 c-166 20 -271 31 -277 27 -5 -2 -8 0 -8 5 0 9 -25 26 -120 80 -82
46 -110 65 -110 73 0 5 -19 9 -42 9 -23 0 -39 2 -37 5 20 20 214 24 232 6 12
-12 9 -13 -70 -13 -94 0 -56 -14 71 -25 105 -10 130 -15 166 -38 23 -14 44
-24 47 -21 3 3 -6 11 -21 17 -14 7 -26 16 -26 21 0 11 -6 11 123 -16 129 -28
253 -73 323 -117 52 -33 85 -32 108 3 16 27 -7 57 -92 121 -121 90 -295 174
-482 232 -154 48 -449 105 -541 105 -25 0 -59 6 -75 14 -224 111 -296 136
-395 136 -43 0 -90 8 -139 25 -99 34 -157 33 -129 -2 9 -10 3 -13 -32 -13 -24
0 -73 5 -109 10 -110 16 -106 22 -114 -148 -3 -81 -11 -174 -16 -206 -9 -55
-7 -77 5 -65 10 10 66 254 68 296 l2 44 55 -6 c30 -3 107 -10 170 -14 l115 -9
112 -60 c116 -63 176 -102 168 -110 -2 -3 -17 0 -32 6 -37 14 -152 22 -159 10
-3 -5 -11 -4 -19 2 -7 6 -19 8 -27 5 -7 -3 -68 19 -136 49 -132 59 -220 91
-228 83 -8 -7 19 -47 32 -47 14 0 253 -106 270 -120 7 -7 11 -17 8 -23 -6 -18
30 -71 65 -96 25 -18 31 -20 31 -7 0 22 30 20 60 -4 14 -11 33 -20 43 -20 10
0 20 -7 23 -15 4 -8 10 -15 16 -15 5 0 16 -7 25 -16 12 -11 13 -18 4 -27 -8
-8 -11 -7 -11 5 0 9 -10 18 -22 21 -13 2 -32 8 -43 12 l-20 7 20 -17 c11 -10
62 -38 114 -62 70 -34 95 -42 101 -33 6 9 11 8 18 -7 14 -25 80 -45 121 -37
20 4 31 2 31 -4 0 -6 -7 -9 -15 -6 -35 14 -9 -14 51 -55 35 -24 63 -45 61 -47
-2 -3 -55 20 -118 49 -63 30 -163 73 -224 96 -60 24 -126 49 -145 56 -19 8
-53 19 -75 26 -45 13 -186 102 -258 162 -26 22 -50 37 -53 34 -11 -11 26 -66
58 -86 18 -12 46 -32 62 -45 l29 -24 -34 1 c-27 2 -35 -2 -37 -19 -4 -28 29
-66 59 -70 13 -1 27 -3 30 -3 3 -1 26 -16 50 -33 l44 -33 -40 -5 c-46 -6 -55
-25 -27 -60 15 -19 30 -23 93 -27 63 -4 81 -9 124 -38 60 -41 298 -279 270
-271 -20 6 -243 46 -257 46 -3 0 -21 12 -38 26 -28 25 -57 27 -33 3 7 -7 7
-17 0 -33 -11 -23 -11 -23 -72 24 -120 94 -242 137 -355 126 -148 -16 -325
-87 -417 -170 l-51 -47 -57 75 c-55 73 -189 203 -250 241 -71 44 -150 86 -193
101 -89 31 -117 36 -227 43 l-110 6 3 35 c11 121 6 309 -11 370 -62 232 -236
429 -460 522 -85 35 -94 43 -79 60 6 8 21 49 33 93 29 104 32 300 6 420 -18
84 -64 220 -92 274 -8 17 -12 31 -7 31 4 0 57 -55 117 -121 417 -461 797 -726
1124 -785 90 -16 247 -18 321 -4 29 6 55 8 58 5 11 -10 -88 -86 -183 -141
-117 -67 -110 -62 -103 -70 11 -10 190 56 295 109 56 28 105 49 108 46 7 -8
-45 -157 -94 -269 -66 -149 -74 -170 -67 -177 8 -8 1 -16 78 107 69 111 112
198 123 249 7 32 56 81 81 81 22 0 17 24 -10 49 -14 13 -30 36 -36 52 -7 16
-16 29 -20 29 -14 0 -35 63 -23 67 7 3 9 11 6 19 -7 18 8 18 82 -1 32 -9 64
-14 71 -11 6 2 51 -9 100 -25 48 -16 93 -29 99 -29 7 0 18 -7 26 -16 7 -9 27
-23 45 -32 86 -46 114 -63 114 -72 0 -6 -41 -10 -97 -11 -85 -1 -92 -2 -58
-11 22 -5 100 -25 173 -45 73 -19 134 -34 136 -32 8 10 -332 323 -359 332 -42
12 -85 33 -120 57 -37 24 -62 25 -87 3 -15 -13 -24 -14 -53 -6 -36 12 -36 12
-170 -40 -117 -44 -158 -51 -310 -52 -183 0 -241 8 -317 46 -10 5 -25 9 -33 9
-8 0 -23 4 -33 9 -25 12 -80 36 -132 57 -43 17 -120 59 -205 112 -41 26 -66
45 -235 178 -129 102 -359 321 -427 408 -67 84 -133 154 -133 140z m2545
-1536 c0 -12 27 -30 83 -58 46 -22 102 -53 125 -69 23 -15 78 -47 123 -71 44
-23 92 -51 105 -61 l24 -19 -28 0 c-29 0 -207 58 -267 88 -19 9 -49 29 -65 44
-17 16 -77 50 -133 78 -56 27 -102 53 -102 56 0 19 40 34 85 31 40 -1 50 -6
50 -19z m160 -34 c18 -14 36 -32 39 -40 3 -8 34 -28 68 -43 50 -23 83 -30 158
-35 129 -8 351 -55 517 -112 137 -46 178 -62 171 -69 -2 -2 -35 3 -73 11 -39
8 -101 17 -140 19 -38 3 -70 5 -70 6 0 2 -74 7 -210 14 -127 7 -131 8 -185 43
-30 19 -79 49 -110 65 -30 17 -85 50 -123 74 -37 24 -71 43 -75 43 -9 1 -62
47 -62 55 0 13 65 -8 95 -31z m125 -284 c35 -11 67 -16 70 -12 3 5 16 5 30 1
25 -7 25 -7 2 -8 -26 -1 -20 -21 6 -21 22 0 271 -122 272 -134 0 -12 -181 1
-255 19 -75 18 -75 18 -75 1 0 -7 -6 -19 -14 -25 -18 -15 -40 11 -31 38 5 15
-1 21 -28 30 -19 6 -61 29 -95 51 -34 22 -66 40 -72 40 -5 0 -10 5 -10 10 0 6
-22 24 -50 41 -27 17 -50 34 -50 38 0 8 197 -37 300 -69z m437 -116 l111 -69
-40 -3 c-33 -3 -59 8 -161 63 -67 37 -126 70 -130 74 -4 4 19 7 51 6 53 -2 68
-9 169 -71z m-155 -112 c9 -9 6 -12 -12 -13 -24 -1 -24 -1 4 -11 22 -8 31 -7
38 3 7 11 11 11 15 2 2 -7 9 -13 14 -13 6 0 7 5 4 10 -3 6 1 10 10 10 9 0 13
-4 10 -10 -4 -6 10 -10 34 -10 23 0 41 5 41 10 0 6 20 10 45 10 26 0 45 -5 45
-11 0 -6 -7 -9 -15 -5 -8 3 -25 1 -37 -4 -19 -7 -14 -9 25 -9 26 -1 47 4 47 9
0 6 5 10 11 10 6 0 9 -6 6 -14 -4 -9 14 -26 46 -47 67 -43 137 -108 137 -126
0 -8 -4 -12 -8 -9 -5 3 -35 10 -68 15 -75 13 -234 47 -300 63 -62 16 -254 127
-247 143 6 16 139 13 155 -3z m-337 -225 c17 -8 48 -22 70 -31 l40 -16 -35 30
c-29 24 -31 28 -12 23 12 -3 25 -9 28 -14 3 -5 12 -9 20 -9 24 0 67 -32 54
-40 -7 -4 20 -20 62 -38 83 -35 147 -51 196 -52 24 0 44 -10 75 -40 l42 -39
-28 -1 c-31 0 -208 26 -270 40 -28 6 -46 5 -54 -2 -7 -6 -13 -6 -13 -2 0 5
-24 20 -52 34 -37 17 -92 63 -178 148 l-125 123 75 -49 c41 -27 89 -56 105
-65z"/>
<path d="M6075 5140 c-47 -74 -75 -170 -69 -233 13 -121 68 -205 125 -193 41
8 120 47 126 62 3 8 -17 40 -45 71 -76 89 -84 111 -86 230 -1 116 -10 128 -51
63z"/>
<path d="M6859 4843 c0 -16 -9 -41 -20 -58 -10 -16 -23 -40 -28 -51 -10 -23
-85 -87 -113 -97 -26 -9 -22 -34 13 -78 34 -43 56 -48 99 -23 28 17 80 107 80
139 0 10 5 33 12 51 15 41 -5 144 -28 144 -8 0 -14 -11 -15 -27z"/>
<path d="M6197 4335 c-44 -23 -99 -27 -152 -10 -27 8 -52 15 -54 15 -2 0 12
-16 32 -37 21 -20 40 -34 43 -30 3 3 29 -4 58 -17 28 -12 83 -25 121 -29 39
-3 85 -9 103 -13 28 -6 34 -4 38 13 5 18 10 19 42 12 21 -5 49 -9 64 -9 16 0
48 -15 75 -36 25 -19 67 -46 93 -59 72 -36 74 -61 3 -30 -92 41 -94 28 -3 -21
46 -25 89 -49 95 -54 5 -5 65 -37 131 -73 67 -36 161 -91 210 -124 120 -79
119 -79 109 -62 -5 8 -17 20 -27 27 -10 7 -18 17 -18 22 0 12 39 -3 87 -34 21
-13 55 -29 76 -36 51 -16 42 -35 -16 -34 -39 0 -43 -2 -29 -13 34 -25 110 -5
132 36 29 56 -10 114 -112 168 -65 34 -138 94 -138 114 0 4 -30 22 -67 39
-150 71 -269 133 -289 151 -15 14 -29 18 -51 13 -20 -4 -39 -1 -54 9 -25 16
-233 87 -255 87 -7 0 -26 -8 -43 -17 -29 -17 -31 -17 -78 6 -73 36 -98 41
-126 26z m701 -305 c20 -11 53 -27 72 -36 80 -35 105 -55 127 -99 13 -25 21
-45 18 -45 -15 0 -55 34 -55 46 0 8 -10 14 -25 14 -14 0 -25 3 -25 8 0 4 -15
14 -32 23 -140 66 -208 102 -208 110 0 15 88 1 128 -21z"/>
<path d="M4400 4302 c0 -4 -11 -71 -25 -148 -30 -165 -31 -198 -7 -244 31 -63
123 -102 201 -85 38 8 86 47 106 85 17 32 68 327 60 341 -4 5 -17 9 -30 9 -27
0 -25 4 -55 -175 -30 -180 -46 -205 -129 -205 -46 0 -95 35 -105 76 -4 14 5
95 20 181 22 129 24 157 13 164 -18 11 -49 12 -49 1z"/>
<path d="M7841 3719 c-51 -15 -79 -37 -107 -85 -34 -58 -45 -98 -45 -169 0
-98 29 -151 106 -186 79 -36 195 -15 195 35 0 29 -3 31 -32 15 -31 -17 -114
-13 -148 8 -62 36 -75 147 -30 250 37 84 127 105 208 49 49 -33 54 -33 50 6
-2 26 -11 37 -43 55 -49 26 -108 35 -154 22z"/>
<path d="M5989 2688 c-17 -30 -17 -199 -1 -257 11 -39 36 -93 82 -181 17 -33
157 -163 197 -183 16 -8 43 -18 60 -22 18 -3 35 -11 38 -16 4 -5 16 -9 29 -9
12 0 26 -3 29 -6 10 -11 116 -53 187 -75 83 -27 92 -31 169 -79 34 -22 66 -40
71 -40 12 0 89 -83 105 -114 10 -18 15 -57 15 -105 0 -71 -2 -79 -27 -103 -51
-48 -99 -60 -219 -55 -60 3 -138 11 -174 17 -36 7 -125 14 -198 17 l-134 4
-33 -38 c-23 -25 -38 -56 -46 -93 -13 -60 -30 -80 -66 -80 -31 0 -29 -15 15
-82 20 -31 45 -69 55 -85 9 -15 27 -42 40 -59 12 -18 28 -40 35 -50 11 -17 12
-14 8 21 -3 22 -6 97 -6 168 0 116 -2 127 -18 127 -10 0 -23 -5 -29 -11 -6 -6
-16 -8 -23 -4 -17 11 -2 66 28 98 24 25 30 27 111 26 82 0 114 -4 241 -29 140
-27 170 -32 239 -37 46 -3 77 -1 84 6 6 6 23 11 38 11 18 0 46 18 90 59 l64
58 3 82 c7 136 -1 163 -68 237 -32 36 -85 84 -117 107 -67 49 -177 107 -203
107 -9 0 -28 9 -42 19 -14 11 -59 34 -101 50 -167 66 -227 107 -307 206 -65
79 -100 160 -106 245 -8 106 -13 130 -28 124 -7 -3 -27 7 -44 21 l-31 26 -12
-23z"/>
</g>
</svg>
